<?xml version="1.0" encoding="iso-8859-1"?>
<!-- Generator: Adobe Illustrator 22.1.0, SVG Export Plug-In . SVG Version: 6.00 Build 0)  -->
<svg xmlns="http://www.w3.org/2000/svg" xmlns:xlink="http://www.w3.org/1999/xlink" version="1.1" id="Layer_1_1_" x="0px" y="0px" viewBox="0 0 64 64" style="enable-background:new 0 0 64 64;" xml:space="preserve" width="512" height="512">
<g>
	<path style="fill:#F0BC5E;" d="M49,21H15c-1.105,0-2,0.895-2,2v24c0,1.105,0.895,2,2,2h3v-8.001c0-1.657,1.344-3,3.001-3   c1.657,0,2.999,1.343,2.999,3V48c0.543,0.271,1.033,0.614,1.48,1H49c1.105,0,2-0.895,2-2V23C51,21.895,50.105,21,49,21z    M37.935,40.929c-0.148,0.641-0.538,1.195-1.083,1.54l-1.676,1.062c-0.695,0.44-1.531,0.578-2.324,0.384   c-0.464-0.114-0.897-0.337-1.263-0.652l-0.946-0.815c-3.458-2.978-5.777-7.119-6.547-11.689c-0.071-0.422-0.058-0.855,0.038-1.271   l0.022-0.095c0.189-0.816,0.685-1.522,1.379-1.962l1.676-1.062c0.545-0.345,1.201-0.454,1.824-0.301   c0.623,0.152,1.161,0.553,1.497,1.114l1.307,2.183c0.252,0.42,0.331,0.926,0.22,1.406l-0.031,0.133   c-0.159,0.686-0.68,1.22-1.347,1.381s-1.189,0.695-1.347,1.381l-0.031,0.133c-0.111,0.48-0.032,0.986,0.22,1.406l0.697,1.164   c0.252,0.42,0.655,0.72,1.122,0.835l0.129,0.032c0.667,0.163,1.366-0.075,1.805-0.616c0.44-0.54,1.139-0.779,1.805-0.616   l0.129,0.032c0.467,0.114,0.87,0.414,1.122,0.834l1.307,2.183C37.977,39.613,38.083,40.288,37.935,40.929z"/>
	<g>
		<rect x="5" y="31" width="2" height="8"/>
		<rect x="5" y="27" width="2" height="2"/>
		<rect x="5" y="41" width="2" height="2"/>
		<rect x="57" y="32" width="2" height="6"/>
		<path d="M58,17H6c-2.757,0-5,2.243-5,5v26c0,2.757,2.243,5,5,5h11c0,2.192,1.047,4.285,2.8,5.6l1.2,0.9V63h24v-3.5l1.2-0.9    c1.753-1.315,2.8-3.408,2.8-5.6h9c2.757,0,5-2.243,5-5V22C63,19.243,60.757,17,58,17z M3,48V22c0-1.654,1.346-3,3-3h3v32H6    C4.346,51,3,49.654,3,48z M47,51v2c0,1.565-0.748,3.061-2,4l-2,1.5V61H23v-2.5L21,57c-1.252-0.939-2-2.434-2-4V41    c0-0.534,0.208-1.037,0.586-1.415C19.963,39.208,20.465,39,21,39h0c1.103,0,2,0.897,2,2v7.619l0.553,0.276    c2.126,1.063,3.447,3.2,3.447,5.578V55h2v-0.528c0-0.502-0.06-0.991-0.146-1.472H45v-2H28.223    c-0.683-1.472-1.784-2.732-3.223-3.592V41c0-2.206-1.794-4-3.999-4C21,37,21,37,21,37c-1.068,0-2.072,0.416-2.828,1.171    C17.416,38.926,17,39.931,17,41v10h-6V19h42v32H47z M61,48c0,1.654-1.346,3-3,3h-3V19h3c1.654,0,3,1.346,3,3V48z"/>
		<path d="M29,12c0,1.654,1.346,3,3,3s3-1.346,3-3s-1.346-3-3-3S29,10.346,29,12z M33,12c0,0.551-0.449,1-1,1s-1-0.449-1-1    s0.449-1,1-1S33,11.449,33,12z"/>
		<path d="M32,3c4.962,0,9,4.038,9,9h2c0-6.065-4.935-11-11-11S21,5.935,21,12h2C23,7.038,27.038,3,32,3z"/>
		<path d="M37,12h2c0-3.86-3.14-7-7-7s-7,3.14-7,7h2c0-2.757,2.243-5,5-5S37,9.243,37,12z"/>
		<path d="M37.192,36.356c-0.386-0.645-1.021-1.116-1.741-1.292l-0.13-0.032c-1.032-0.253-2.14,0.123-2.818,0.956    c-0.197,0.242-0.501,0.347-0.791,0.276l-0.131-0.032c-0.208-0.051-0.386-0.184-0.501-0.376l-0.697-1.165    c-0.118-0.197-0.156-0.44-0.104-0.667l0.031-0.133c0.074-0.319,0.307-0.562,0.608-0.634c1.042-0.252,1.841-1.067,2.086-2.127    l0.031-0.134c0.17-0.736,0.05-1.498-0.336-2.145l-1.307-2.183c-0.476-0.796-1.229-1.354-2.118-1.572    c-0.881-0.216-1.828-0.06-2.597,0.428L25,26.585c-0.923,0.584-1.569,1.501-1.84,2.675c-0.127,0.547-0.144,1.107-0.051,1.664    c0.808,4.794,3.251,9.155,6.881,12.281l0.946,0.814c0.483,0.417,1.063,0.716,1.677,0.865c0.31,0.076,0.626,0.113,0.942,0.113    c0.755,0,1.507-0.213,2.155-0.624l1.676-1.062c0.772-0.49,1.313-1.256,1.522-2.16c0.208-0.898,0.062-1.827-0.409-2.615    L37.192,36.356z M36.96,40.703c-0.09,0.388-0.319,0.715-0.644,0.921l-1.676,1.062c-0.468,0.296-1.018,0.387-1.552,0.257    c-0.309-0.075-0.602-0.227-0.847-0.438l-0.946-0.814c-3.276-2.822-5.483-6.763-6.213-11.097c-0.049-0.295-0.041-0.591,0.049-0.976    c0.128-0.556,0.471-1.045,0.94-1.342l1.676-1.062C27.97,27.072,28.22,27,28.475,27c0.107,0,0.216,0.013,0.323,0.039    c0.366,0.09,0.677,0.322,0.876,0.656l1.307,2.183c0.118,0.198,0.156,0.441,0.104,0.667l-0.031,0.133    c-0.074,0.319-0.307,0.562-0.607,0.635c-1.042,0.251-1.841,1.066-2.087,2.127l-0.031,0.133c-0.17,0.737-0.051,1.499,0.336,2.145    l0.697,1.164c0.386,0.646,1.022,1.117,1.741,1.292l0.13,0.032c1.035,0.254,2.141-0.123,2.819-0.956    c0.196-0.241,0.502-0.345,0.79-0.275l0.13,0.032c0.209,0.051,0.387,0.185,0.502,0.377l1.308,2.184    C36.985,39.903,37.049,40.317,36.96,40.703z"/>
		<rect x="35" y="31" width="2" height="2"/>
		<rect x="39" y="31" width="2" height="2"/>
		<rect x="43" y="31" width="2" height="2"/>
	</g>
</g>
</svg>
