<?xml version="1.0" encoding="iso-8859-1"?>
<!-- Generator: Adobe Illustrator 22.1.0, SVG Export Plug-In . SVG Version: 6.00 Build 0)  -->
<svg xmlns="http://www.w3.org/2000/svg" xmlns:xlink="http://www.w3.org/1999/xlink" version="1.1" id="Layer_1_1_" x="0px" y="0px" viewBox="0 0 64 64" style="enable-background:new 0 0 64 64;" xml:space="preserve" width="512" height="512">
<g>
	<g>
		<rect x="35" y="18" style="fill:#F0BC5E;" width="7" height="4"/>
	</g>
	<g>
		<path style="fill:#F0BC5E;" d="M27,39h-6v-6h6V39z"/>
	</g>
	<g>
		<path style="fill:#F0BC5E;" d="M43,47h-6v-6h6V47z"/>
	</g>
	<g>
		<path d="M46,1H18c-2.757,0-5,2.243-5,5v52c0,2.757,2.243,5,5,5h28c2.757,0,5-2.243,5-5V6C51,3.243,48.757,1,46,1z M18,3h28    c1.654,0,3,1.346,3,3v3H15V6C15,4.346,16.346,3,18,3z M46,61H18c-1.654,0-3-1.346-3-3v-3h30v-2H15V11h34v42h-2v2h2v3    C49,59.654,47.654,61,46,61z"/>
		<rect x="28" y="5" width="8" height="2"/>
		<rect x="38" y="5" width="2" height="2"/>
		<rect x="24" y="5" width="2" height="2"/>
		<rect x="29" y="57" width="6" height="2"/>
		<path d="M47,13H17v38h30V13z M45,49H19V15h26V49z"/>
		<path d="M43,17H21v6h22V17z M41,21H23v-2h18V21z"/>
		<path d="M27,25h-6v6h6V25z M25,29h-2v-2h2V29z"/>
		<path d="M37,31h6v-6h-6V31z M39,27h2v2h-2V27z"/>
		<path d="M29,31h6v-6h-6V31z M31,27h2v2h-2V27z"/>
		<path d="M37,39h6v-6h-6V39z M39,35h2v2h-2V35z"/>
		<path d="M29,39h6v-6h-6V39z M31,35h2v2h-2V35z"/>
		<path d="M27,41h-6v6h6V41z M25,45h-2v-2h2V45z"/>
		<path d="M29,47h6v-6h-6V47z M31,43h2v2h-2V43z"/>
	</g>
</g>
</svg>
