<?xml version="1.0" encoding="iso-8859-1"?>
<!-- Generator: Adobe Illustrator 22.1.0, SVG Export Plug-In . SVG Version: 6.00 Build 0)  -->
<svg xmlns="http://www.w3.org/2000/svg" xmlns:xlink="http://www.w3.org/1999/xlink" version="1.1" id="Layer_1_1_" x="0px" y="0px" viewBox="0 0 64 64" style="enable-background:new 0 0 64 64;" xml:space="preserve" width="512" height="512">
<g>
	<path style="fill:#F0BC5E;" d="M26,36c-1.105,0-2-0.895-2-2c0-1.105,0.895-2,2-2h3c0-7.732-6.268-14-14-14S1,24.268,1,32   s6.268,14,14,14c6.341,0,11.691-4.219,13.413-10H26z M20,39c0,1.105-0.895,2-2,2h-6c-1.105,0-2-0.895-2-2v-6c0-1.105,0.895-2,2-2h6   c1.105,0,2,0.895,2,2V39z"/>
	<g>
		<rect x="28" y="5" width="8" height="2"/>
		<rect x="38" y="5" width="2" height="2"/>
		<rect x="24" y="5" width="2" height="2"/>
		<rect x="29" y="57" width="6" height="2"/>
		<path d="M21,39v-6c0-1.654-1.346-3-3-3h-5v-4c0-1.103,0.897-2,2-2s2,0.897,2,2v2h2v-2c0-2.206-1.794-4-4-4s-4,1.794-4,4v4.184    C9.839,30.598,9,31.698,9,33v6c0,1.654,1.346,3,3,3h6C19.654,42,21,40.654,21,39z M11,39v-6c0-0.551,0.448-1,1-1h6    c0.552,0,1,0.449,1,1v6c0,0.551-0.448,1-1,1h-6C11.448,40,11,39.551,11,39z"/>
		<path d="M59.403,23c-0.679,0-1.345-0.233-1.874-0.657l-2.809-2.247C53.838,19.389,52.729,19,51.597,19H50V6c0-2.757-2.243-5-5-5    H19c-2.757,0-5,2.243-5,5v12.05c0.332-0.023,0.662-0.05,1-0.05s0.668,0.027,1,0.05V11h32v8h-2v-6H18v5.33    c0.688,0.15,1.354,0.358,2,0.605V15h24v6h1h1h5.597c0.679,0,1.345,0.233,1.874,0.657l2.809,2.247    C57.162,24.611,58.271,25,59.403,25H61v12h-1.597c-1.132,0-2.241,0.389-3.124,1.096l-3.091,2.473    c-0.398,0.319-0.876,0.533-1.38,0.617l-10.798,1.799C40.947,42.995,40.884,43,40.819,43h-0.639C39.529,43,39,42.471,39,41.82    v-0.985l8.211-1.493C48.827,39.047,50,37.642,50,36v-1H26c-0.552,0-1-0.449-1-1s0.448-1,1-1h8h10h4v-2h-4H34c-0.552,0-1-0.449-1-1    s0.448-1,1-1h2h12v-2H36c-0.552,0-1-0.449-1-1s0.448-1,1-1h2h10v-2H38c-0.552,0-1-0.449-1-1s0.448-1,1-1h4v-2h-4    c-1.654,0-3,1.346-3,3c0,0.395,0.081,0.77,0.22,1.116C33.945,23.461,33,24.617,33,26c0,0.395,0.081,0.77,0.22,1.116    C31.945,27.461,31,28.617,31,30c0,0.352,0.072,0.686,0.184,1H26c-1.654,0-3,1.346-3,3s1.346,3,3,3h21.578    c-0.193,0.189-0.442,0.323-0.725,0.374L37,39.166v2.654c0,1.753,1.427,3.18,3.181,3.18h0.639c0.176,0,0.353-0.015,0.522-0.043    L44,44.514V49H20v-3.932c-0.645,0.247-1.313,0.448-2,0.598V51h28v-6.82l2-0.333V53H16v-7.041C15.669,45.982,15.337,46,15,46    c-0.338,0-0.668-0.027-1-0.05V58c0,2.757,2.243,5,5,5h26c2.757,0,5-2.243,5-5V43.514l2.137-0.356    c0.841-0.14,1.637-0.496,2.302-1.028l3.091-2.473C58.059,39.233,58.725,39,59.403,39H63V23H59.403z M16,9V6c0-1.654,1.346-3,3-3    h26c1.654,0,3,1.346,3,3v3H16z M48,58c0,1.654-1.346,3-3,3H19c-1.654,0-3-1.346-3-3v-3h32V58z"/>
	</g>
</g>
</svg>
